# xmcd
#
# Track frame offsets: 
#        150
#        26395
#        43970
#        66745
#        84867
#        101137
#        115600
#        133282
#        154517
#
# Disc length: 2292 seconds
#
# Revision: 4
# Processed by: cddbd v1.5PL3 Copyright (c) Steve Scherf et al.
# Submitted via: ExactAudioCopy v0.90b4
#
DISCID=7608f209
DTITLE=The Charlie Daniels Band - High Lonesome
DYEAR=1900
DGENRE=Country
TTITLE0=Billy The Kid
TTITLE1=Carolina
TTITLE2=High Lonesome
TTITLE3=Running With The Crowd
TTITLE4=Right Now Tennessee Blues
TTITLE5=Roll Mississippi
TTITLE6=Slow Song
TTITLE7=Tennessee
TTITLE8=Turned My Head Around
EXTD=
EXTT0=
EXTT1=
EXTT2=
EXTT3=
EXTT4=
EXTT5=
EXTT6=
EXTT7=
EXTT8=
PLAYORDER=
